Coordinates
nRows=217
nColumns=2
inDegrees=yes
endheader
time	ankle_angle_r	
2.96069	 -0.393176	
2.99395	 -0.410137	
3.02722	 -0.417028	
3.06048	 -0.416077	
3.09375	 -0.413158	
3.12702	 -0.410013	
3.16028	 -0.407546	
3.19355	 -0.407860	
3.22681	 -0.412343	
3.26008	 -0.417733	
3.29335	 -0.419618	
3.32661	 -0.421686	
3.35988	 -0.429457	
3.39315	 -0.438395	
3.42641	 -0.441366	
3.45968	 -0.440280	
3.49294	 -0.441609	
3.52621	 -0.447123	
3.55948	 -0.452200	
3.59274	 -0.451730	
3.62601	 -0.447009	
3.65927	 -0.442748	
3.69254	 -0.441296	
3.72581	 -0.444032	
3.75907	 -0.450170	
3.79234	 -0.455337	
3.8256	 -0.457800	
3.85887	 -0.458125	
3.89214	 -0.454781	
3.9254	 -0.450488	
3.95867	 -0.451450	
3.99194	 -0.456531	
4.0252	 -0.459548	
4.05847	 -0.457946	
4.09173	 -0.454139	
4.125	 -0.452185	
4.15827	 -0.451435	
4.19153	 -0.446941	
4.2248	 -0.440279	
4.25806	 -0.439382	
4.29133	 -0.446328	
4.3246	 -0.456836	
4.35786	 -0.465442	
4.39113	 -0.466794	
4.4244	 -0.462158	
4.45766	 -0.458583	
4.49093	 -0.457914	
4.52419	 -0.457547	
4.55746	 -0.456011	
4.59073	 -0.452004	
4.62399	 -0.446423	
4.65726	 -0.442217	
4.69052	 -0.439875	
4.72379	 -0.438244	
4.75706	 -0.436164	
4.79032	 -0.434299	
4.82359	 -0.435033	
4.85685	 -0.436800	
4.89012	 -0.437254	
4.92339	 -0.438080	
4.95665	 -0.438179	
4.98992	 -0.435000	
5.02319	 -0.432088	
5.05645	 -0.434054	
5.08972	 -0.440821	
5.12298	 -0.447108	
5.15625	 -0.444950	
5.18952	 -0.433967	
5.22278	 -0.423522	
5.25605	 -0.420371	
5.28931	 -0.421735	
5.32258	 -0.420623	
5.35585	 -0.415811	
5.38911	 -0.414897	
5.42238	 -0.422354	
5.45565	 -0.430901	
5.48891	 -0.433008	
5.52218	 -0.428251	
5.55544	 -0.417435	
5.58871	 -0.405116	
5.62198	 -0.399434	
5.65524	 -0.401311	
5.68851	 -0.405753	
5.72177	 -0.409882	
5.75504	 -0.411647	
5.78831	 -0.409404	
5.82157	 -0.403699	
5.85484	 -0.396386	
5.8881	 -0.394203	
5.92137	 -0.405309	
5.95464	 -0.424232	
5.9879	 -0.434233	
6.02117	 -0.427567	
6.05444	 -0.411128	
6.0877	 -0.397163	
6.12097	 -0.395657	
6.15423	 -0.406202	
6.1875	 -0.418207	
6.22077	 -0.423672	
6.25403	 -0.423318	
6.2873	 -0.422716	
6.32056	 -0.424688	
6.35383	 -0.425239	
6.3871	 -0.421609	
6.42036	 -0.418360	
6.45363	 -0.420660	
6.4869	 -0.427289	
6.52016	 -0.432097	
6.55343	 -0.432578	
6.58669	 -0.434558	
6.61996	 -0.441834	
6.65323	 -0.449067	
6.68649	 -0.452731	
6.71976	 -0.454856	
6.75302	 -0.454317	
6.78629	 -0.450004	
6.81956	 -0.446249	
6.85282	 -0.445830	
6.88609	 -0.447757	
6.91935	 -0.451661	
6.95262	 -0.456301	
6.98589	 -0.458784	
7.01915	 -0.457130	
7.05242	 -0.450992	
7.08569	 -0.443031	
7.11895	 -0.438906	
7.15222	 -0.441827	
7.18548	 -0.449112	
7.21875	 -0.455725	
7.25202	 -0.458434	
7.28528	 -0.457818	
7.31855	 -0.456105	
7.35181	 -0.455063	
7.38508	 -0.459329	
7.41835	 -0.470435	
7.45161	 -0.479373	
7.48488	 -0.478738	
7.51815	 -0.470828	
7.55141	 -0.459517	
7.58468	 -0.448221	
7.61794	 -0.440081	
7.65121	 -0.434112	
7.68448	 -0.429761	
7.71774	 -0.429145	
7.75101	 -0.431757	
7.78427	 -0.435966	
7.81754	 -0.439931	
7.85081	 -0.439803	
7.88407	 -0.434874	
7.91734	 -0.429838	
7.9506	 -0.429406	
7.98387	 -0.433090	
8.01714	 -0.434038	
8.0504	 -0.427280	
8.08367	 -0.417476	
8.11694	 -0.411446	
8.1502	 -0.410731	
8.18347	 -0.413606	
8.21673	 -0.416792	
8.25	 -0.418812	
8.28327	 -0.421105	
8.31653	 -0.423094	
8.3498	 -0.424407	
8.38306	 -0.427332	
8.41633	 -0.427887	
8.4496	 -0.418935	
8.48286	 -0.405084	
8.51613	 -0.398239	
8.5494	 -0.402993	
8.58266	 -0.412207	
8.61593	 -0.412815	
8.64919	 -0.401300	
8.68246	 -0.388291	
8.71573	 -0.382727	
8.74899	 -0.385090	
8.78226	 -0.393736	
8.81552	 -0.404965	
8.84879	 -0.414455	
8.88206	 -0.421110	
8.91532	 -0.422731	
8.94859	 -0.417450	
8.98185	 -0.409628	
9.01512	 -0.403653	
9.04839	 -0.402496	
9.08165	 -0.411576	
9.11492	 -0.428562	
9.14819	 -0.441883	
9.18145	 -0.445539	
9.21472	 -0.441890	
9.24798	 -0.435893	
9.28125	 -0.431153	
9.31452	 -0.428209	
9.34778	 -0.429385	
9.38105	 -0.435895	
9.41431	 -0.440930	
9.44758	 -0.439214	
9.48085	 -0.434470	
9.51411	 -0.431500	
9.54738	 -0.431827	
9.58065	 -0.434834	
9.61391	 -0.437953	
9.64718	 -0.439911	
9.68044	 -0.440646	
9.71371	 -0.438322	
9.74698	 -0.433402	
9.78024	 -0.430256	
9.81351	 -0.432132	
9.84677	 -0.438826	
9.88004	 -0.446200	
9.91331	 -0.450061	
9.94657	 -0.451895	
9.97984	 -0.453947	
10.0131	 -0.454269	
10.0464	 -0.452423	
10.0796	 -0.449261	
10.1129	 -0.440635	
10.1462	 -0.424205	
